<svg width="29" height="39" viewBox="0 0 29 39" fill="none" xmlns="http://www.w3.org/2000/svg">
<path d="M7.33466 27.3864C6.67839 26.7302 7.02049 26.9152 5.43759 26.4915C4.7194 26.299 4.08805 25.9289 3.51712 25.4856L0.0907733 33.8864C-0.24076 34.6998 0.378505 35.5834 1.25605 35.5502L5.2352 35.3984L7.97205 38.2893C8.57621 38.9267 9.63651 38.728 9.96804 37.9147L13.8989 28.2768C13.0802 28.733 12.1717 29.0003 11.2322 29.0003C9.75961 29.0003 8.37608 28.4271 7.33466 27.3864ZM28.9092 33.8864L25.4829 25.4856C24.912 25.9297 24.2806 26.299 23.5624 26.4915C21.9712 26.9175 22.3201 26.7317 21.6653 27.3864C20.6239 28.4271 19.2396 29.0003 17.767 29.0003C16.8275 29.0003 15.919 28.7322 15.1004 28.2768L19.0312 37.9147C19.3627 38.728 20.4238 38.9267 21.0272 38.2893L23.7648 35.3984L27.744 35.5502C28.6215 35.5834 29.2408 34.699 28.9092 33.8864ZM19.8619 25.6774C21.0159 24.5031 21.148 24.6043 22.7913 24.1564C23.8403 23.8702 24.6605 23.0357 24.9414 21.9679C25.5063 19.8231 25.3598 20.0821 26.9011 18.5128C27.6692 17.7312 27.969 16.5916 27.6881 15.5238C27.1239 13.3805 27.1232 13.6796 27.6881 11.534C27.969 10.4662 27.6692 9.32658 26.9011 8.54495C25.3598 6.97564 25.5063 7.23392 24.9414 5.0899C24.6605 4.02205 23.8403 3.18755 22.7913 2.90133C20.6859 2.32663 20.9396 2.47691 19.3967 0.906849C18.6287 0.125217 17.5087 -0.180639 16.4597 0.105582C14.355 0.679534 14.6488 0.680289 12.5403 0.105582C11.4913 -0.180639 10.3713 0.124462 9.60328 0.906849C8.06192 2.47616 8.31566 2.32663 6.20941 2.90133C5.16044 3.18755 4.34029 4.02205 4.05935 5.0899C3.49522 7.23392 3.64097 6.97564 2.09961 8.54495C1.33157 9.32658 1.031 10.4662 1.31269 11.534C1.87682 13.6758 1.87758 13.3767 1.31269 15.523C1.03175 16.5908 1.33157 17.7304 2.09961 18.5128C3.64097 20.0821 3.49446 19.8231 4.05935 21.9679C4.34029 23.0357 5.16044 23.8702 6.20941 24.1564C7.89955 24.6171 8.02567 24.5446 9.13808 25.6774C10.1372 26.6947 11.6937 26.8767 12.8944 26.1169C13.3746 25.8121 13.9316 25.6502 14.5004 25.6502C15.0691 25.6502 15.6261 25.8121 16.1063 26.1169C17.3063 26.8767 18.8628 26.6947 19.8619 25.6774ZM7.37544 13.2891C7.37544 9.28429 10.5654 6.03768 14.5 6.03768C18.4346 6.03768 21.6246 9.28429 21.6246 13.2891C21.6246 17.2939 18.4346 20.5405 14.5 20.5405C10.5654 20.5405 7.37544 17.2939 7.37544 13.2891Z" fill="#443C3A"/>
</svg>
