<svg width="35" height="33" viewBox="0 0 35 33" fill="none" xmlns="http://www.w3.org/2000/svg">
<path d="M17.4997 6.04569L19.0682 4.42429C22.7499 0.618305 29.5007 1.9317 31.9376 6.71669C33.0817 8.96728 33.3399 12.2167 31.2507 16.3637C29.2382 20.3566 25.0512 25.1394 17.4997 30.349C9.94822 25.1394 5.7634 20.3566 3.74865 16.3637C1.65953 12.2145 1.91547 8.96728 3.06176 6.71669C5.49871 1.9317 12.2495 0.616105 15.9312 4.42209L17.4997 6.04569ZM17.4997 33C51.0417 10.7097 27.8272 -6.68787 17.8847 2.5147C17.7535 2.6357 17.6244 2.7611 17.4997 2.8909C17.3763 2.76122 17.2478 2.63645 17.1147 2.5169C7.17438 -6.69227 -16.0423 10.7075 17.4997 33Z" fill="#443C3A"/>
</svg>
