<svg width="42" height="38" viewBox="0 0 42 38" fill="none" xmlns="http://www.w3.org/2000/svg">
<path d="M16.8025 25.6918L22.7284 27.6671C22.7284 27.6671 37.5432 24.7041 39.5185 24.7041C41.4938 24.7041 41.4938 26.6794 39.5185 28.6547C37.5432 30.63 30.6296 36.556 24.7037 36.556C18.7778 36.556 14.8272 33.593 10.8765 33.593H1" stroke="#443C3A" stroke-linecap="round" stroke-linejoin="round"/>
<path d="M1 21.741C2.97531 19.7657 6.92593 16.8027 10.8765 16.8027C14.8272 16.8027 24.2099 20.7534 25.6914 22.7287C27.1728 24.704 22.7284 27.6669 22.7284 27.6669" stroke="#443C3A" stroke-linecap="round" stroke-linejoin="round"/>
<path d="M12.8521 10.8765V2.97531C12.8521 2.45142 13.0602 1.949 13.4306 1.57855C13.801 1.20811 14.3035 1 14.8274 1H38.5311C39.0549 1 39.5574 1.20811 39.9278 1.57855C40.2983 1.949 40.5064 2.45142 40.5064 2.97531V18.7778" stroke="#443C3A" stroke-linecap="round" stroke-linejoin="round"/>
<path d="M21.7407 1H31.6173V9.88889H21.7407V1Z" stroke="#443C3A" stroke-linecap="round" stroke-linejoin="round"/>
</svg>
