<svg width="40" height="32" viewBox="0 0 40 32" fill="none" xmlns="http://www.w3.org/2000/svg">
<path d="M2.85742 14.2852H20.0004V17.1423H2.85742V14.2852Z" fill="#443C3A"/>
<path d="M0 7.14258H14.2858V9.99974H0V7.14258Z" fill="#443C3A"/>
<path d="M39.8843 15.1515L35.5986 5.15146C35.4886 4.89443 35.3056 4.67536 35.0722 4.52145C34.8388 4.36755 34.5653 4.28558 34.2857 4.28574H30V1.42858C30 1.0497 29.8495 0.686332 29.5816 0.418421C29.3137 0.150511 28.9503 0 28.5714 0H5.71414V2.85716H27.1428V20.7944C26.4919 21.1724 25.9222 21.6755 25.4666 22.2748C25.0111 22.874 24.6786 23.5575 24.4885 24.2858H15.5113C15.1636 22.9392 14.3367 21.7656 13.1856 20.985C12.0345 20.2044 10.6382 19.8704 9.25845 20.0457C7.87871 20.2209 6.61024 20.8933 5.69083 21.9369C4.77141 22.9805 4.26416 24.3236 4.26416 25.7144C4.26416 27.1053 4.77141 28.4483 5.69083 29.4919C6.61024 30.5355 7.87871 31.2079 9.25845 31.3832C10.6382 31.5584 12.0345 31.2245 13.1856 30.4439C14.3367 29.6633 15.1636 28.4897 15.5113 27.143H24.4885C24.7993 28.3691 25.51 29.4565 26.5082 30.2333C27.5064 31.01 28.7352 31.4318 30 31.4318C31.2648 31.4318 32.4935 31.01 33.4918 30.2333C34.49 29.4565 35.2007 28.3691 35.5114 27.143H38.5715C38.9504 27.143 39.3137 26.9925 39.5816 26.7246C39.8495 26.4567 40 26.0933 40 25.7144V15.7144C40.0001 15.5208 39.9607 15.3293 39.8843 15.1515V15.1515ZM9.99988 28.5716C9.43479 28.5716 8.88239 28.404 8.41253 28.0901C7.94267 27.7761 7.57646 27.3299 7.36021 26.8078C7.14396 26.2857 7.08738 25.7113 7.19762 25.157C7.30787 24.6028 7.57998 24.0937 7.97957 23.6941C8.37915 23.2945 8.88824 23.0224 9.44248 22.9122C9.99671 22.8019 10.5712 22.8585 11.0933 23.0748C11.6153 23.291 12.0616 23.6572 12.3755 24.1271C12.6895 24.5969 12.857 25.1493 12.857 25.7144C12.8563 26.472 12.555 27.1983 12.0194 27.7339C11.4837 28.2696 10.7574 28.5708 9.99988 28.5716V28.5716ZM30 7.1429H33.3429L36.4057 14.2858H30V7.1429ZM30 28.5716C29.4349 28.5716 28.8825 28.404 28.4126 28.0901C27.9428 27.7761 27.5766 27.3299 27.3603 26.8078C27.1441 26.2857 27.0875 25.7113 27.1977 25.157C27.308 24.6028 27.5801 24.0937 27.9797 23.6941C28.3793 23.2945 28.8884 23.0224 29.4426 22.9122C29.9968 22.8019 30.5713 22.8585 31.0934 23.0748C31.6155 23.291 32.0617 23.6572 32.3756 24.1271C32.6896 24.5969 32.8572 25.1493 32.8572 25.7144C32.8564 26.472 32.5551 27.1983 32.0195 27.7339C31.4838 28.2696 30.7575 28.5708 30 28.5716ZM37.1429 24.2858H35.5114C35.1968 23.0622 34.4849 21.9775 33.4875 21.2019C32.4901 20.4263 31.2635 20.0036 30 20.0001V17.143H37.1429V24.2858Z" fill="#443C3A"/>
</svg>
