<svg width="28" height="23" viewBox="0 0 28 23" fill="none" xmlns="http://www.w3.org/2000/svg">
<path d="M2 10H14V12H2V10Z" fill="black"/>
<path d="M0 5H10V7H0V5Z" fill="black"/>
<path d="M27.9184 10.606L24.9184 3.606C24.8414 3.42608 24.7132 3.27273 24.5499 3.165C24.3865 3.05727 24.1951 2.99989 23.9994 3H20.9994V1C20.9994 0.734784 20.894 0.48043 20.7065 0.292893C20.5189 0.105357 20.2646 0 19.9994 0H3.99936V2H18.9994V14.556C18.5437 14.8206 18.1449 15.1728 17.826 15.5922C17.5071 16.0117 17.2744 16.4902 17.1414 17H10.8574C10.614 16.0573 10.0351 15.2358 9.22935 14.6894C8.42357 14.143 7.44617 13.9092 6.48036 14.0319C5.51454 14.1546 4.62662 14.6253 3.98304 15.3558C3.33945 16.0863 2.98438 17.0264 2.98438 18C2.98437 18.9736 3.33945 19.9137 3.98304 20.6442C4.62662 21.3747 5.51454 21.8454 6.48036 21.9681C7.44617 22.0908 8.42357 21.857 9.22935 21.3106C10.0351 20.7642 10.614 19.9427 10.8574 19H17.1414C17.3589 19.8582 17.8564 20.6194 18.5551 21.1632C19.2539 21.7069 20.114 22.0021 20.9994 22.0021C21.8847 22.0021 22.7448 21.7069 23.4436 21.1632C24.1423 20.6194 24.6398 19.8582 24.8574 19H26.9994C27.2646 19 27.5189 18.8946 27.7065 18.7071C27.894 18.5196 27.9994 18.2652 27.9994 18V11C27.9994 10.8645 27.9718 10.7305 27.9184 10.606ZM6.99936 20C6.6038 20 6.21712 19.8827 5.88822 19.6629C5.55932 19.4432 5.30297 19.1308 5.1516 18.7654C5.00022 18.3999 4.96062 17.9978 5.03779 17.6098C5.11496 17.2219 5.30544 16.8655 5.58514 16.5858C5.86485 16.3061 6.22122 16.1156 6.60918 16.0384C6.99714 15.9613 7.39927 16.0009 7.76472 16.1522C8.13018 16.3036 8.44253 16.56 8.6623 16.8889C8.88206 17.2178 8.99936 17.6044 8.99936 18C8.99883 18.5303 8.78794 19.0387 8.41299 19.4136C8.03803 19.7886 7.52963 19.9995 6.99936 20ZM20.9994 5H23.3394L25.4834 10H20.9994V5ZM20.9994 20C20.6038 20 20.2171 19.8827 19.8882 19.6629C19.5593 19.4432 19.303 19.1308 19.1516 18.7654C19.0002 18.3999 18.9606 17.9978 19.0378 17.6098C19.115 17.2219 19.3054 16.8655 19.5851 16.5858C19.8648 16.3061 20.2212 16.1156 20.6092 16.0384C20.9971 15.9613 21.3993 16.0009 21.7647 16.1522C22.1302 16.3036 22.4425 16.56 22.6623 16.8889C22.8821 17.2178 22.9994 17.6044 22.9994 18C22.9988 18.5303 22.7879 19.0387 22.413 19.4136C22.038 19.7886 21.5296 19.9995 20.9994 20ZM25.9994 17H24.8574C24.6371 16.1434 24.1388 15.3842 23.4406 14.8413C22.7424 14.2983 21.8838 14.0025 20.9994 14V12H25.9994V17Z" fill="black"/>
</svg>
