<svg width="40" height="39" viewBox="0 0 40 39" fill="none" xmlns="http://www.w3.org/2000/svg">
<path fill-rule="evenodd" clip-rule="evenodd" d="M28.4212 8.25684V22.3137C28.4212 23.841 27.8444 25.0505 26.8959 25.8537C25.9707 26.6358 24.777 26.9589 23.6349 26.9105C22.3149 26.8558 20.9359 26.2821 20.0096 25.2126C19.7707 27.1389 20.4591 28.42 20.7717 28.7579L21.4875 29.5295L19.9444 30.961L19.2286 30.1895C18.3717 29.2653 17.4517 27.0874 18.0402 24.2421C17.1397 24.4317 16.2099 24.4338 15.3086 24.2484C14.3644 24.0484 13.4359 23.6179 12.7328 22.8947C12.0128 22.1547 11.5791 21.1579 11.5791 19.9579C11.5791 18.2274 12.197 16.9768 13.3012 16.0632C14.3223 15.2179 15.7086 14.7105 17.1107 14.2568C17.4391 14.1516 17.7749 14.0463 18.117 13.9379C20.7896 13.0989 23.8265 12.1453 26.6886 9.7242L28.4212 8.25684ZM21.0117 22.2484C21.4549 21.4358 22.0644 20.5663 22.8875 19.6516L23.5928 18.8695L22.0275 17.461L21.3223 18.2432C20.2802 19.401 19.5202 20.5274 18.9812 21.5958C18.1896 22.1768 16.9159 22.4368 15.7444 22.1884C15.1096 22.0537 14.5907 21.7853 14.2412 21.4263C13.9086 21.0853 13.6844 20.6179 13.6844 19.9568C13.6844 18.8137 14.0528 18.1726 14.6433 17.6832C15.3159 17.1274 16.3317 16.721 17.7591 16.2589C18.0696 16.1589 18.3959 16.0568 18.7338 15.9505C20.9223 15.2674 23.6391 14.4189 26.3159 12.6337V22.3137C26.3159 23.2768 25.9717 23.8779 25.537 24.2453C25.0791 24.6326 24.4286 24.8368 23.7233 24.8074C22.3254 24.7495 21.0812 23.8347 21.0117 22.2484Z" fill="#443C3A"/>
<path fill-rule="evenodd" clip-rule="evenodd" d="M20 36.8421L19.5411 37.7895L19.5368 37.7874L19.5242 37.781L19.4789 37.7589L19.3105 37.6747C19.1653 37.6011 18.9547 37.4916 18.6884 37.3484C15.5336 35.6414 12.5677 33.6063 9.84 31.2768C5.03579 27.1432 0 21.0137 0 13.3937C0 9.96947 1.13368 6.65263 3.07474 4.17263C5.02211 1.68737 7.82316 0 11.1179 0C15.0316 0 18.0021 2.21789 20 5.34526C21.9989 2.21895 24.9684 0 28.8821 0C32.1768 0 34.9779 1.68737 36.9242 4.17368C38.8674 6.65263 40 9.96842 40 13.3947C40 20.7242 34.9558 26.8547 30.1674 31.0495C27.2569 33.5784 24.0874 35.7928 20.7116 37.6558C20.656 37.6859 20.6002 37.7158 20.5442 37.7453L20.4989 37.7695L20.4874 37.7758L20.4821 37.7779L20 36.8421ZM4.73263 5.47053C3.09579 7.56105 2.10526 10.4147 2.10526 13.3937C2.10526 20.0695 6.54316 25.6642 11.2126 29.681C13.9118 31.9844 16.8537 33.987 19.9863 35.6537L20.2958 35.4811C23.3154 33.7611 26.1574 31.7463 28.78 29.4663C33.4642 25.361 37.8947 19.7684 37.8947 13.3926C37.8947 10.4137 36.9042 7.56105 35.2674 5.47053C33.6358 3.38737 31.4042 2.10526 28.8821 2.10526C25.3937 2.10526 22.6926 4.38632 20.9453 7.95789L20 9.89158L19.0547 7.96C17.3074 4.38632 14.6063 2.10526 11.1179 2.10526C8.59579 2.10526 6.36421 3.38737 4.73263 5.47053Z" fill="#443C3A"/>
<path d="M20 36.8418L20.4821 37.7776L20.0147 38.0176L19.541 37.7892L20 36.8418Z" fill="#443C3A"/>
</svg>
