<svg width="27" height="24" viewBox="0 0 27 24" fill="none" xmlns="http://www.w3.org/2000/svg">
<path d="M13.4546 4.39686L14.6023 3.21767C17.2965 0.449676 22.2365 1.40487 24.0198 4.88486C24.857 6.52166 25.0459 8.88485 23.5172 11.9008C22.0444 14.8048 18.9805 18.2832 13.4546 22.072C7.92865 18.2832 4.86634 14.8048 3.39201 11.9008C1.86325 8.88325 2.05054 6.52166 2.88936 4.88486C4.67264 1.40487 9.61268 0.448076 12.3068 3.21607L13.4546 4.39686ZM13.4546 24C37.9995 7.78885 21.0119 -4.86391 13.7363 1.82887C13.6403 1.91687 13.5458 2.00807 13.4546 2.10247C13.3643 2.00816 13.2703 1.91742 13.1728 1.83047C5.89885 -4.86711 -11.0903 7.78725 13.4546 24Z" fill="#443C3A"/>
</svg>
