<svg width="40" height="40" viewBox="0 0 40 40" fill="none" xmlns="http://www.w3.org/2000/svg">
<rect width="40" height="40" fill="#443C3A"/>
<path d="M19.9997 14.359L20.7648 13.5728C22.5609 11.7275 25.8543 12.3643 27.0431 14.6843C27.6013 15.7755 27.7272 17.351 26.7081 19.3616C25.7262 21.2976 23.6836 23.6165 19.9997 26.1424C16.3157 23.6165 14.2742 21.2976 13.2913 19.3616C12.2721 17.3499 12.397 15.7755 12.9562 14.6843C14.145 12.3643 17.4384 11.7265 19.2345 13.5718L19.9997 14.359ZM19.9997 27.4277C36.363 16.6203 25.0379 8.18513 20.1875 12.647C20.1235 12.7056 20.0605 12.7664 19.9997 12.8294C19.9395 12.7665 19.8768 12.706 19.8118 12.648C14.9625 8.183 3.63638 16.6192 19.9997 27.4277Z" fill="white"/>
</svg>
