<svg width="40" height="40" viewBox="0 0 40 40" fill="none" xmlns="http://www.w3.org/2000/svg">
<rect width="40" height="40" fill="#443C3A"/>
<path d="M11.452 11.4277H28.5491C28.8582 11.4281 29.1545 11.5509 29.373 11.7694C29.5916 11.9878 29.7145 12.284 29.7148 12.5929V26.5745C29.7145 26.8834 29.5916 27.1796 29.373 27.398C29.1545 27.6164 28.8582 27.7393 28.5491 27.7396H11.452C11.1429 27.7393 10.8466 27.6164 10.6281 27.398C10.4095 27.1796 10.2866 26.8834 10.2863 26.5745V12.5929C10.2866 12.284 10.4095 11.9878 10.6281 11.7694C10.8466 11.5509 11.1429 11.4281 11.452 11.4277ZM11.0634 26.5745C11.0635 26.6775 11.1045 26.7762 11.1773 26.849C11.2502 26.9218 11.349 26.9628 11.452 26.9629H28.5491C28.6522 26.9628 28.7509 26.9218 28.8238 26.849C28.8966 26.7762 28.9376 26.6775 28.9377 26.5745V12.5929C28.9376 12.4899 28.8966 12.3912 28.8238 12.3184C28.7509 12.2455 28.6522 12.2046 28.5491 12.2045H11.452C11.349 12.2046 11.2502 12.2455 11.1773 12.3184C11.1045 12.3912 11.0635 12.4899 11.0634 12.5929V26.5745ZM15.7263 15.6999C15.7263 16.8329 16.1766 17.9196 16.9782 18.7208C17.7798 19.522 18.8669 19.9721 20.0006 19.9721C21.1342 19.9721 22.2214 19.522 23.0229 18.7208C23.8245 17.9196 24.2748 16.8329 24.2748 15.6999C24.2748 15.5969 24.2339 15.4981 24.161 15.4253C24.0882 15.3524 23.9893 15.3115 23.8863 15.3115C23.7832 15.3115 23.6844 15.3524 23.6115 15.4253C23.5386 15.4981 23.4977 15.5969 23.4977 15.6999C23.4977 16.6269 23.1293 17.516 22.4734 18.1715C21.8176 18.827 20.9281 19.1953 20.0006 19.1953C19.0731 19.1953 18.1835 18.827 17.5277 18.1715C16.8719 17.516 16.5034 16.6269 16.5034 15.6999C16.5034 15.5969 16.4625 15.4981 16.3896 15.4253C16.3167 15.3524 16.2179 15.3115 16.1148 15.3115C16.0118 15.3115 15.913 15.3524 15.8401 15.4253C15.7672 15.4981 15.7263 15.5969 15.7263 15.6999Z" fill="white"/>
</svg>
