<svg width="41" height="37" viewBox="0 0 41 37" fill="none" xmlns="http://www.w3.org/2000/svg">
<path d="M33.3125 34.012H17.9375V23.5469H15.375V34.012H7.6875V23.5469H5.125V34.012C5.125 34.7059 5.39498 35.3713 5.87554 35.862C6.3561 36.3526 7.00788 36.6283 7.6875 36.6283H33.3125C33.9921 36.6283 34.6439 36.3526 35.1244 35.862C35.605 35.3713 35.875 34.7059 35.875 34.012V23.5469H33.3125V34.012Z" fill="#443C3A"/>
<path d="M40.7309 12.1264L35.5034 1.45203C35.2913 1.01615 34.9642 0.649322 34.5591 0.392807C34.1539 0.136293 33.6867 0.000258282 33.21 0H7.79001C7.31328 0.000258282 6.84607 0.136293 6.44091 0.392807C6.03576 0.649322 5.70872 1.01615 5.49658 1.45203L0.269082 12.1264C0.0905992 12.4921 -0.00154815 12.8953 1.96762e-05 13.3038V17.3328C-0.00115014 17.9441 0.207374 18.5366 0.589394 19.0073C1.15399 19.668 1.85129 20.197 2.63393 20.5581C3.41656 20.9193 4.26617 21.1042 5.12501 21.1003C6.52641 21.1025 7.88506 20.6077 8.96876 19.7006C10.0525 20.6082 11.4108 21.1043 12.8125 21.1043C14.2142 21.1043 15.5726 20.6082 16.6563 19.7006C17.7399 20.6082 19.0983 21.1043 20.5 21.1043C21.9017 21.1043 23.2601 20.6082 24.3437 19.7006C25.4274 20.6082 26.7858 21.1043 28.1875 21.1043C29.5892 21.1043 30.9475 20.6082 32.0312 19.7006C33.2409 20.7147 34.7886 21.2104 36.3489 21.0835C37.9092 20.9567 39.3605 20.2171 40.3978 19.0203C40.7844 18.5514 40.9976 17.9588 41 17.3459V13.3038C41.0015 12.8953 40.9094 12.4921 40.7309 12.1264ZM35.875 18.484C35.3277 18.4827 34.7887 18.3478 34.3029 18.0907C33.817 17.8336 33.3984 17.4616 33.0819 17.0058L32.0312 15.5407L30.9934 17.0058C30.6709 17.4546 30.2494 17.8196 29.763 18.0711C29.2767 18.3227 28.7391 18.4538 28.1939 18.4538C27.6487 18.4538 27.1111 18.3227 26.6248 18.0711C26.1384 17.8196 25.7169 17.4546 25.3944 17.0058L24.3437 15.5407L23.3059 17.0058C22.9834 17.4546 22.5619 17.8196 22.0755 18.0711C21.5892 18.3227 21.0516 18.4538 20.5064 18.4538C19.9612 18.4538 19.4236 18.3227 18.9373 18.0711C18.4509 17.8196 18.0294 17.4546 17.7069 17.0058L16.6563 15.5407L15.6184 17.0058C15.2959 17.4546 14.8744 17.8196 14.388 18.0711C13.9017 18.3227 13.3641 18.4538 12.8189 18.4538C12.2737 18.4538 11.7361 18.3227 11.2498 18.0711C10.7634 17.8196 10.3419 17.4546 10.0194 17.0058L8.96876 15.5407L7.91814 17.0058C7.60163 17.4616 7.183 17.8336 6.69714 18.0907C6.21128 18.3478 5.67227 18.4827 5.12501 18.484C4.64216 18.49 4.16364 18.3904 3.72164 18.1918C3.27964 17.9932 2.88441 17.7003 2.56252 17.3328V13.3038L7.79001 2.61628H33.21L38.4375 13.2907V17.2936C38.1175 17.6663 37.7235 17.9652 37.2817 18.1704C36.8399 18.3756 36.3604 18.4825 35.875 18.484Z" fill="#443C3A"/>
</svg>
