<svg width="48" height="13" viewBox="0 0 48 13" fill="none" xmlns="http://www.w3.org/2000/svg">
<path d="M11.726 0.399999V13H10.25L2.69 3.604V13H0.89V0.399999H2.366L9.926 9.796V0.399999H11.726ZM24.6414 11.434V13H15.4974V0.399999H24.3894V1.966H17.2974V5.836H23.6154V7.366H17.2974V11.434H24.6414ZM35.3354 13L31.5554 7.798L27.8294 13H25.7594L30.4934 6.538L26.0474 0.399999H28.0994L31.6274 5.242L35.1194 0.399999H37.0814L32.6354 6.484L37.4054 13H35.3354ZM41.4838 1.966H37.1638V0.399999H47.5858V1.966H43.2658V13H41.4838V1.966Z" fill="white"/>
</svg>
