<svg width="50" height="13" viewBox="0 0 50 13" fill="none" xmlns="http://www.w3.org/2000/svg">
<path d="M5.804 0.399999C7.436 0.399999 8.72 0.789999 9.656 1.57C10.592 2.35 11.06 3.424 11.06 4.792C11.06 6.16 10.592 7.234 9.656 8.014C8.72 8.794 7.436 9.184 5.804 9.184H2.69V13H0.89V0.399999H5.804ZM5.75 7.618C6.89 7.618 7.76 7.378 8.36 6.898C8.96 6.406 9.26 5.704 9.26 4.792C9.26 3.88 8.96 3.184 8.36 2.704C7.76 2.212 6.89 1.966 5.75 1.966H2.69V7.618H5.75ZM22.1285 13L19.4105 9.13C19.0745 9.154 18.8105 9.166 18.6185 9.166H15.5045V13H13.7045V0.399999H18.6185C20.2505 0.399999 21.5345 0.789999 22.4705 1.57C23.4065 2.35 23.8745 3.424 23.8745 4.792C23.8745 5.764 23.6345 6.592 23.1545 7.276C22.6745 7.96 21.9905 8.458 21.1025 8.77L24.0905 13H22.1285ZM18.5645 7.636C19.7045 7.636 20.5745 7.39 21.1745 6.898C21.7745 6.406 22.0745 5.704 22.0745 4.792C22.0745 3.88 21.7745 3.184 21.1745 2.704C20.5745 2.212 19.7045 1.966 18.5645 1.966H15.5045V7.636H18.5645ZM35.9266 11.434V13H26.7826V0.399999H35.6746V1.966H28.5826V5.836H34.9006V7.366H28.5826V11.434H35.9266ZM49.6094 0.399999L44.0834 13H42.3014L36.7574 0.399999H38.7014L43.2374 10.75L47.8094 0.399999H49.6094Z" fill="white"/>
</svg>
