<svg width="37" height="36" viewBox="0 0 37 36" fill="none" xmlns="http://www.w3.org/2000/svg">
<path d="M36.4049 0.6841C36.2943 0.42369 36.0816 0.213616 35.8112 0.0975825C35.5409 -0.0184513 35.2336 -0.0315118 34.9532 0.0611181C34.6729 0.153748 34.4412 0.344936 34.3063 0.59491C34.1713 0.844883 34.1436 1.13439 34.2288 1.40322C36.0006 6.21534 32.4836 9.80912 29.8021 11.734L28.7187 10.2669C28.3545 9.77487 27.5401 9.36575 26.9069 9.35854L20.8266 9.38378C20.0838 9.40497 19.3609 9.61545 18.7343 9.99295L0.817738 21.8647C0.400996 22.1418 0.117436 22.5637 0.0291431 23.0379C-0.0591502 23.5122 0.0550176 24.0002 0.34665 24.3951L8.48865 35.4035C9.09897 36.2236 10.0736 36.1244 10.9433 35.5513L28.8599 23.6778C29.3748 23.3335 29.9699 22.591 30.1797 22.0233L32.0831 16.3551C32.2929 15.7891 32.1651 14.9258 31.8008 14.4338L31.1409 13.5399C34.7418 10.9319 38.48 6.32348 36.4049 0.6841ZM28.0684 17.55C27.7383 17.7683 27.3659 17.923 26.9726 18.0053C26.5792 18.0876 26.1725 18.0959 25.7758 18.0296C25.379 17.9633 25 17.8238 24.6603 17.6191C24.3207 17.4143 24.027 17.1483 23.7962 16.8363C23.3287 16.2048 23.1456 15.424 23.2868 14.665C23.428 13.9061 23.8822 13.2311 24.5495 12.7883C25.0727 12.4419 25.6973 12.2587 26.3361 12.2642C26.9748 12.2697 27.5958 12.4636 28.1122 12.819C27.5935 13.1145 27.2368 13.2875 27.1701 13.3146C26.9336 13.4211 26.7425 13.6004 26.628 13.823C26.5135 14.0456 26.4824 14.2983 26.5398 14.5398C26.5972 14.7813 26.7397 14.9972 26.944 15.1522C27.1482 15.3071 27.4021 15.3919 27.664 15.3926C27.8281 15.3926 27.9959 15.3566 28.1542 15.2863C28.5242 15.1205 28.9209 14.924 29.3348 14.6915C29.43 15.2323 29.3616 15.7875 29.1376 16.2932C28.9135 16.7989 28.5429 17.2346 28.0684 17.55Z" fill="#443C3A"/>
</svg>
