<svg width="20" height="22" viewBox="0 0 20 22" fill="none" xmlns="http://www.w3.org/2000/svg">
<circle cx="10" cy="11" r="10" fill="white"/>
<path d="M12.99 10.502C13.818 10.682 14.454 11.042 14.898 11.582C15.354 12.11 15.582 12.794 15.582 13.634C15.582 14.714 15.18 15.548 14.376 16.136C13.584 16.712 12.408 17 10.848 17H5.052V4.4H10.488C11.892 4.4 12.978 4.682 13.746 5.246C14.526 5.81 14.916 6.608 14.916 7.64C14.916 8.336 14.742 8.93 14.394 9.422C14.058 9.902 13.59 10.262 12.99 10.502ZM6.384 5.498V10.07H10.398C11.418 10.07 12.204 9.878 12.756 9.494C13.308 9.098 13.584 8.528 13.584 7.784C13.584 7.04 13.308 6.476 12.756 6.092C12.204 5.696 11.418 5.498 10.398 5.498H6.384ZM10.83 15.902C11.958 15.902 12.81 15.71 13.386 15.326C13.962 14.942 14.25 14.342 14.25 13.526C14.25 11.954 13.11 11.168 10.83 11.168H6.384V15.902H10.83Z" fill="#443C3A"/>
</svg>
