<svg width="29" height="24" viewBox="0 0 29 24" fill="none" xmlns="http://www.w3.org/2000/svg">
<path d="M1.78883 0H26.3973C26.8422 0.000491583 27.2687 0.181261 27.5832 0.502646C27.8978 0.82403 28.0747 1.25978 28.0752 1.71429V22.2857C28.0747 22.7402 27.8978 23.176 27.5832 23.4974C27.2687 23.8187 26.8422 23.9995 26.3973 24H1.78883C1.34398 23.9995 0.917492 23.8187 0.602938 23.4974C0.288383 23.176 0.111454 22.7402 0.110973 22.2857V1.71429C0.111454 1.25978 0.288383 0.82403 0.602938 0.502646C0.917492 0.181261 1.34398 0.000491583 1.78883 0ZM1.22954 22.2857C1.22969 22.4372 1.28866 22.5825 1.39352 22.6896C1.49837 22.7967 1.64054 22.857 1.78883 22.8571H26.3973C26.5456 22.857 26.6878 22.7967 26.7927 22.6896C26.8975 22.5825 26.9565 22.4372 26.9566 22.2857V1.71429C26.9565 1.56278 26.8975 1.41752 26.7927 1.31039C26.6878 1.20326 26.5456 1.14301 26.3973 1.14286H1.78883C1.64054 1.14301 1.49837 1.20326 1.39352 1.31039C1.28866 1.41752 1.22969 1.56278 1.22954 1.71429V22.2857ZM7.94096 6.28571C7.94096 7.95279 8.58912 9.55159 9.74287 10.7304C10.8966 11.9092 12.4614 12.5714 14.0931 12.5714C15.7247 12.5714 17.2895 11.9092 18.4433 10.7304C19.597 9.55159 20.2452 7.95279 20.2452 6.28571C20.2452 6.13416 20.1863 5.98882 20.0814 5.88165C19.9765 5.77449 19.8343 5.71429 19.6859 5.71429C19.5376 5.71429 19.3953 5.77449 19.2905 5.88165C19.1856 5.98882 19.1266 6.13416 19.1266 6.28571C19.1266 7.64968 18.5963 8.95779 17.6523 9.92226C16.7084 10.8867 15.4281 11.4286 14.0931 11.4286C12.7581 11.4286 11.4778 10.8867 10.5338 9.92226C9.58984 8.95779 9.05952 7.64968 9.05952 6.28571C9.05952 6.13416 9.0006 5.98882 8.89571 5.88165C8.79083 5.77449 8.64857 5.71429 8.50024 5.71429C8.35191 5.71429 8.20965 5.77449 8.10476 5.88165C7.99988 5.98882 7.94096 6.13416 7.94096 6.28571Z" fill="#443C3A"/>
</svg>
