<svg width="233" height="24" viewBox="0 0 233 24" fill="none" xmlns="http://www.w3.org/2000/svg">
<path d="M14.76 11.448C16.232 11.768 17.3627 12.408 18.152 13.368C18.9627 14.3067 19.368 15.5227 19.368 17.016C19.368 18.936 18.6533 20.4187 17.224 21.464C15.816 22.488 13.7253 23 10.952 23H0.648V0.599998H10.312C12.808 0.599998 14.7387 1.10133 16.104 2.104C17.4907 3.10667 18.184 4.52533 18.184 6.36C18.184 7.59733 17.8747 8.65333 17.256 9.528C16.6587 10.3813 15.8267 11.0213 14.76 11.448ZM3.016 2.552V10.68H10.152C11.9653 10.68 13.3627 10.3387 14.344 9.656C15.3253 8.952 15.816 7.93867 15.816 6.616C15.816 5.29333 15.3253 4.29067 14.344 3.608C13.3627 2.904 11.9653 2.552 10.152 2.552H3.016ZM10.92 21.048C12.9253 21.048 14.44 20.7067 15.464 20.024C16.488 19.3413 17 18.2747 17 16.824C17 14.0293 14.9733 12.632 10.92 12.632H3.016V21.048H10.92ZM48.988 20.952V23H33.148V0.599998H48.508V2.648H35.516V10.616H47.1V12.632H35.516V20.952H48.988ZM62.9293 0.599998H65.2973V20.952H77.8413V23H62.9293V0.599998ZM100.1 23.192C97.8813 23.192 95.8653 22.7013 94.052 21.72C92.26 20.7173 90.852 19.352 89.828 17.624C88.8253 15.896 88.324 13.9547 88.324 11.8C88.324 9.64533 88.8253 7.704 89.828 5.976C90.852 4.248 92.26 2.89333 94.052 1.912C95.8653 0.909332 97.8813 0.407999 100.1 0.407999C102.319 0.407999 104.313 0.898666 106.084 1.88C107.876 2.86133 109.284 4.22667 110.308 5.976C111.332 7.704 111.844 9.64533 111.844 11.8C111.844 13.9547 111.332 15.9067 110.308 17.656C109.284 19.384 107.876 20.7387 106.084 21.72C104.313 22.7013 102.319 23.192 100.1 23.192ZM100.1 21.08C101.871 21.08 103.471 20.6853 104.9 19.896C106.329 19.0853 107.449 17.976 108.26 16.568C109.071 15.1387 109.476 13.5493 109.476 11.8C109.476 10.0507 109.071 8.472 108.26 7.064C107.449 5.63467 106.329 4.52533 104.9 3.736C103.471 2.92533 101.871 2.52 100.1 2.52C98.3293 2.52 96.7187 2.92533 95.268 3.736C93.8387 4.52533 92.708 5.63467 91.876 7.064C91.0653 8.472 90.66 10.0507 90.66 11.8C90.66 13.5493 91.0653 15.1387 91.876 16.568C92.708 17.976 93.8387 19.0853 95.268 19.896C96.7187 20.6853 98.3293 21.08 100.1 21.08ZM141.038 23L135.918 15.8C135.342 15.864 134.744 15.896 134.126 15.896H128.11V23H125.742V0.599998H134.126C136.984 0.599998 139.224 1.28267 140.846 2.648C142.467 4.01333 143.278 5.89067 143.278 8.28C143.278 10.0293 142.83 11.512 141.934 12.728C141.059 13.9227 139.8 14.7867 138.158 15.32L143.63 23H141.038ZM134.062 13.88C136.28 13.88 137.976 13.3893 139.15 12.408C140.323 11.4267 140.91 10.0507 140.91 8.28C140.91 6.46667 140.323 5.08 139.15 4.12C137.976 3.13867 136.28 2.648 134.062 2.648H128.11V13.88H134.062ZM157.242 0.599998H159.61V23H157.242V0.599998ZM184.297 23.192C181.396 23.192 179.134 22.36 177.513 20.696C175.892 19.032 175.081 16.6107 175.081 13.432V0.599998H177.449V13.336C177.449 15.9387 178.036 17.88 179.209 19.16C180.382 20.44 182.078 21.08 184.297 21.08C186.537 21.08 188.244 20.44 189.417 19.16C190.59 17.88 191.177 15.9387 191.177 13.336V0.599998H193.481V13.432C193.481 16.6107 192.67 19.032 191.049 20.696C189.449 22.36 187.198 23.192 184.297 23.192ZM232.256 0.599998V23H229.984V5.08L221.184 20.152H220.064L211.264 5.176V23H208.992V0.599998H210.944L220.672 17.208L230.304 0.599998H232.256Z" fill="#443C3A"/>
</svg>
