<svg width="18" height="24" viewBox="0 0 18 24" fill="none" xmlns="http://www.w3.org/2000/svg">
<path d="M8.91627 1.71429C8.07198 1.71429 7.24665 1.96564 6.54466 2.43656C5.84266 2.90748 5.29552 3.57682 4.97242 4.35993C4.64933 5.14304 4.56479 6.00475 4.7295 6.8361C4.89421 7.66745 5.30078 8.43109 5.89778 9.03046C6.49478 9.62983 7.2554 10.038 8.08347 10.2034C8.91153 10.3687 9.76984 10.2839 10.5499 9.95948C11.3299 9.63511 11.9966 9.0858 12.4656 8.38102C12.9347 7.67623 13.1851 6.84763 13.1851 6C13.1851 4.86336 12.7353 3.77327 11.9348 2.96954C11.1342 2.16582 10.0484 1.71429 8.91627 1.71429ZM8.91627 0C10.0983 0 11.2537 0.351894 12.2365 1.01118C13.2193 1.67047 13.9853 2.60754 14.4377 3.7039C14.89 4.80026 15.0083 6.00666 14.7777 7.17054C14.5471 8.33443 13.978 9.40353 13.1422 10.2426C12.3064 11.0818 11.2415 11.6532 10.0822 11.8847C8.9229 12.1162 7.72126 11.9974 6.62924 11.5433C5.53721 11.0892 4.60384 10.3201 3.94715 9.33342C3.29047 8.34673 2.93996 7.18669 2.93996 6C2.93996 4.4087 3.56961 2.88258 4.69038 1.75736C5.81116 0.632141 7.33125 0 8.91627 0Z" fill="#443C3A"/>
<path d="M0.377962 24H2.08548V19.7143C2.08548 19.1515 2.19589 18.5942 2.41042 18.0742C2.62495 17.5542 2.93938 17.0818 3.33578 16.6838C3.73217 16.2859 4.20276 15.9702 4.72067 15.7548C5.23859 15.5394 5.79368 15.4286 6.35427 15.4286H11.4768C12.609 15.4286 13.6948 15.8801 14.4953 16.6838C15.2959 17.4875 15.7456 18.5776 15.7456 19.7143V24H17.4531V19.7143C17.4531 18.123 16.8235 16.5969 15.7027 15.4716C14.5819 14.3464 13.0618 13.7143 11.4768 13.7143H6.35427C4.76925 13.7143 3.24916 14.3464 2.12838 15.4716C1.00761 16.5969 0.377962 18.123 0.377962 19.7143V24Z" fill="#443C3A"/>
</svg>
