<svg width="22" height="24" viewBox="0 0 22 24" fill="none" xmlns="http://www.w3.org/2000/svg">
<path d="M9.00448 18.6151C4.01738 18.6151 0 14.4625 0 9.30755C0 4.1526 4.01738 0 9.00448 0C13.9916 0 18.009 4.1526 18.009 9.30755C18.009 14.4625 13.9916 18.6151 9.00448 18.6151ZM9.00448 1.43193C4.7793 1.43193 1.3853 4.94016 1.3853 9.30755C1.3853 13.6749 4.7793 17.1832 9.00448 17.1832C13.2297 17.1832 16.6237 13.6749 16.6237 9.30755C16.6237 4.94016 13.2297 1.43193 9.00448 1.43193Z" fill="#443C3A"/>
<path d="M14.9898 15.5126L21.2326 22.8454L20.2496 24L14.0068 16.6672L14.9898 15.5126Z" fill="#443C3A"/>
</svg>
